<svg xmlns="http://www.w3.org/2000/svg" version="1.1" xmlns:xlink="http://www.w3.org/1999/xlink" xmlns:svgjs="http://svgjs.dev/svgjs" width="2000" height="1247" viewBox="0 0 2000 1247"><g transform="matrix(1,0,0,1,-1.2121212121212466,0.5048582995955258)"><svg viewBox="0 0 396 247" data-background-color="#ffffff" preserveAspectRatio="xMidYMid meet" height="1247" width="2000" xmlns="http://www.w3.org/2000/svg" xmlns:xlink="http://www.w3.org/1999/xlink"><g id="tight-bounds" transform="matrix(1,0,0,1,0.2400000000000091,-0.09999999999999432)"><svg viewBox="0 0 395.52 247.2" height="247.2" width="395.52"><g><svg></svg></g><g><svg viewBox="0 0 395.52 247.2" height="247.2" width="395.52"><mask id="59788c72-7e45-4533-a0e2-32876f3e3a78"><rect width="395.52" height="247.2" fill="white"></rect><g transform="matrix(1,0,0,1,0,54.12809503606279)" id="clone"><svg viewBox="0 0 395.52 138.9438099278744" height="138.9438099278744" width="395.52"><g><svg viewBox="0 0 395.52 138.9438099278744" height="138.9438099278744" width="395.52"><g><svg viewBox="0 0 395.52 138.9438099278744" height="138.9438099278744" width="395.52"><g><svg viewBox="0 0 395.52 138.9438099278744" height="138.9438099278744" width="395.52"><g id="SvgjsG4536"><svg viewBox="0 0 395.52 138.9438099278744" height="138.9438099278744" width="395.52" id="SvgjsSvg4535"><g><svg viewBox="0 0 395.52 138.9438099278744" height="138.9438099278744" width="395.52"><g transform="matrix(1,0,0,1,0,0)"><svg width="395.52" viewBox="-2 -39.2 118.85 42.400000000000006" height="138.9438099278744" data-palette-color="#ec4104"><path d="M7.25-0.05L3.15 0.1Q2.1 0.1 2.1-0.7L2.1-0.7Q2.1-1.35 3.6-1.4L3.6-1.4Q4.15-1.45 4.85-2.23 5.55-3 5.85-4.3 6.15-5.6 6.5-13.2 6.85-20.8 6.85-25.13 6.85-29.45 5.88-31.35 4.9-33.25 1.65-34L1.65-34Q1-34.15 1-34.75L1-34.75Q1-35.5 1.9-35.5L1.9-35.5 4.55-35.3 8.3-35.4Q9.25-35.4 9.5-34.7L9.5-34.7Q10.1-33.4 11.65-30.03 13.2-26.65 14.13-24.65 15.05-22.65 16.5-19.55 17.95-16.45 18.85-14.53 19.75-12.6 20.73-10.65 21.7-8.7 22.23-7.78 22.75-6.85 22.9-6.85 23.05-6.85 23.23-7.03 23.4-7.2 23.58-7.5 23.75-7.8 23.88-8.1 24-8.4 24.23-8.88 24.45-9.35 24.55-9.6L24.55-9.6 31-22.9Q33.65-28.3 34.55-30.45L34.55-30.45 35.7-32.95Q35.85-33.35 35.93-33.58 36-33.8 36.05-33.93 36.1-34.05 36.15-34.15 36.2-34.25 36.33-34.6 36.45-34.95 36.6-35.1L36.6-35.1Q37-35.5 38.05-35.5L38.05-35.5 42.35-35.4Q43.2-35.4 43.2-34.75L43.2-34.75Q43.2-34.25 42.88-34.02 42.55-33.8 41.43-33.65 40.3-33.5 39.8-32.4 39.3-31.3 39.3-26.38 39.3-21.45 39.6-15.98 39.9-10.5 39.9-9.1L39.9-9.1Q39.9-4.1 40.7-2.73 41.5-1.35 44.05-1.35L44.05-1.35Q44.4-1.35 44.68-1.1 44.95-0.85 44.95-0.65L44.95-0.65Q44.95 0.15 44.4 0.15L44.4 0.15 43.85 0.15 38.75-0.05Q38.75-0.05 33.55 0.2L33.55 0.2Q32.65 0.2 32.65-0.5L32.65-0.5Q32.65-1.25 34-1.4L34-1.4Q34.5-1.45 35.08-2.02 35.65-2.6 35.88-3.68 36.1-4.75 36.1-6.65 36.1-8.55 36.02-10.8 35.95-13.05 35.85-15.18 35.75-17.3 35.65-19.18 35.55-21.05 35.5-22.25L35.5-22.25 35.4-23.45Q35.4-25.6 34.95-25.6L34.95-25.6Q34.8-25.6 34.68-25.45 34.55-25.3 34.45-25.2 34.35-25.1 34.25-24.88 34.15-24.65 34.05-24.5 33.95-24.35 33.8-24.08 33.65-23.8 33.55-23.6L33.55-23.6 33.3-23.05Q33.1-22.7 33-22.45L33-22.45 26.05-8.4Q24.85-5.95 23.73-3.6 22.6-1.25 22.4-0.93 22.2-0.6 21.83-0.6 21.45-0.6 21.15-1.03 20.85-1.45 20.25-2.9 19.65-4.35 19.2-5.3L19.2-5.3Q10.05-23.9 9.85-24.18 9.65-24.45 9.5-24.45L9.5-24.45Q9.1-24.45 9.1-22.45L9.1-22.45 8.65-9.25 8.65-7Q8.65-2.9 10.3-1.95L10.3-1.95Q11.15-1.45 11.95-1.4L11.95-1.4Q13.2-1.25 13.2-0.73 13.2-0.2 13.05-0.03 12.9 0.15 12.45 0.15L12.45 0.15 7.25-0.05ZM56.85 0.05L52.7 0 48.4 0.2Q46.95 0.2 46.95-0.4L46.95-0.4Q46.95-1.1 47.7-1.35L47.7-1.35Q49.3-1.95 50.5-4.03 51.7-6.1 56.52-16.57 61.35-27.05 65.1-35.05L65.1-35.05Q65.45-35.8 65.72-36 66-36.2 66.52-36.2 67.05-36.2 67.2-36 67.35-35.8 67.75-34.65 68.15-33.5 68.37-32.9 68.6-32.3 69.1-30.95 69.6-29.6 70.7-26.9 71.8-24.2 75.72-15.08 79.65-5.95 80.25-4.73 80.85-3.5 81.9-2.63 82.95-1.75 83.72-1.68 84.5-1.6 85.02-1.43 85.55-1.25 85.55-0.65L85.55-0.65Q85.55 0.1 84.2 0.1L84.2 0.1 79.7-0.2 75.05 0Q73.5 0 73.07-0.13 72.65-0.25 72.65-0.65 72.65-1.05 73.05-1.28 73.45-1.5 73.9-1.58 74.35-1.65 74.75-2.02 75.15-2.4 75.15-3.28 75.15-4.15 73.9-7.55 72.65-10.95 71.8-12.55L71.8-12.55Q71.35-13.4 69.75-13.4L69.75-13.4 63.7-13.3 61.05-13.3Q58.8-13.3 58.22-13.05 57.65-12.8 57.27-12 56.9-11.2 56.2-9.78 55.5-8.35 55.25-7.8 55-7.25 54.65-6.4L54.65-6.4Q54-4.9 54-3.9 54-2.9 54.57-2.3 55.15-1.7 55.85-1.6L55.85-1.6Q57.7-1.45 57.7-0.65L57.7-0.65Q57.7-0.3 57.55-0.13 57.4 0.05 56.85 0.05L56.85 0.05ZM64.75-28.5Q64.3-28.5 61.9-22.98 59.5-17.45 59.5-16.85 59.5-16.25 59.95-16.1 60.4-15.95 62.05-15.95L62.05-15.95 63.6-15.95 68.35-16Q70.3-16 70.3-16.73 70.3-17.45 67.85-22.98 65.4-28.5 64.75-28.5L64.75-28.5ZM95.55-4.45L95.55-4.45 95.65-14.6Q95.65-16.7 94.35-18.7L94.35-18.7Q93.15-20.6 91.2-23.45 89.25-26.3 87.75-28.58 86.25-30.85 85-32.08 83.75-33.3 83.07-33.52 82.4-33.75 81.32-33.75 80.25-33.75 80.25-34.35 80.25-34.95 80.82-35.1 81.4-35.25 83.35-35.25L83.35-35.25 86.25-35.15 90.5-35.2Q93-35.2 93-34.63 93-34.05 91.95-33.68 90.9-33.3 90.9-32.83 90.9-32.35 91.22-31.55 91.55-30.75 91.87-30.25 92.2-29.75 92.85-28.8 93.5-27.85 94.4-26.4 95.3-24.95 97.12-22.5 98.95-20.05 99.22-20.05 99.5-20.05 99.95-20.63 100.4-21.2 101.2-22.55 102-23.9 102.35-24.43 102.7-24.95 103.27-25.8 103.85-26.65 104.07-27 104.3-27.35 104.75-28.08 105.2-28.8 105.4-29.18 105.6-29.55 105.85-30.1L105.85-30.1Q106.35-31 106.35-31.6L106.35-31.6Q106.35-33.4 104.05-33.7L104.05-33.7Q102.95-33.85 102.8-34.13 102.65-34.4 102.65-34.65L102.65-34.65Q102.65-35.25 104.05-35.25L104.05-35.25 106.1-35.2 111.4-35.15Q113.85-35.15 113.85-34.4L113.85-34.4Q113.85-34.2 113.55-34.05 113.25-33.9 112.7-33.65 112.15-33.4 111.7-33.05L111.7-33.05Q109.65-31.45 105.67-25.45 101.7-19.45 101.02-18.6 100.35-17.75 100.15-16.55 99.95-15.35 99.95-12.45L99.95-12.45 100-6.65 100-5.45Q100-3.8 100.57-2.85 101.15-1.9 101.65-1.73 102.15-1.55 102.65-1.55L102.65-1.55 103.65-1.5Q104-1.5 104.2-1.28 104.4-1.05 104.4-0.68 104.4-0.3 104.15-0.15 103.9 0 103.2 0L103.2 0 98.2-0.05 92.7 0.15Q91.3 0.15 91.3-0.35 91.3-0.85 91.57-1.03 91.85-1.2 92.5-1.25 93.15-1.3 93.45-1.4L93.45-1.4Q95.55-2.05 95.55-4.45Z" opacity="1" transform="matrix(1,0,0,1,0,0)" fill="black" class="wordmark-text-0" id="SvgjsPath4534" stroke-width="5" stroke="black" stroke-linejoin="round"></path></svg></g></svg></g></svg></g></svg></g></svg></g></svg></g></svg></g></mask><g mask="url(#59788c72-7e45-4533-a0e2-32876f3e3a78)"><g><path d="M88.874 245.469l-28.39 1.039c-4.847 0-7.271-1.847-7.27-5.54v0c0-3.001 3.462-4.616 10.386-4.847v0c2.539-0.231 5.424-2.147 8.656-5.747 3.231-3.555 5.54-8.332 6.924-14.334 1.385-6.001 2.885-26.543 4.501-61.627 1.616-35.083 2.424-62.619 2.424-82.607 0-19.942-2.239-34.299-6.717-43.07-4.524-8.771-14.287-14.887-29.29-18.349v0c-3.001-0.692-4.501-2.424-4.501-5.194v0c0-3.462 2.077-5.193 6.232-5.193v0l18.349 1.385 25.967-0.693c4.385 0 7.155 1.616 8.309 4.847v0c2.77 6.001 7.732 16.78 14.888 32.337 7.155 15.603 12.879 28.021 17.172 37.253 4.247 9.232 9.717 21.004 16.411 35.315 6.694 14.31 12.118 25.897 16.272 34.76 4.155 8.909 8.494 17.865 13.018 26.867 4.478 9.002 7.94 15.626 10.386 19.873 2.4 4.293 3.947 6.44 4.64 6.439 0.692 0 1.454-0.415 2.285-1.246 0.785-0.785 1.593-1.87 2.423-3.255 0.785-1.385 1.477-2.77 2.078-4.154 0.554-1.385 1.362-3.185 2.423-5.401 1.016-2.17 1.754-3.831 2.216-4.986v0l44.662-92.094c12.233-24.928 20.427-42.354 24.582-52.279v0l7.963-17.311c0.692-1.847 1.223-3.301 1.592-4.362 0.323-1.016 0.6-1.823 0.831-2.424 0.231-0.554 0.462-1.062 0.693-1.523 0.231-0.462 0.646-1.5 1.246-3.116 0.554-1.616 1.177-2.77 1.87-3.462v0c1.847-1.847 5.193-2.77 10.04-2.77v0l29.775 0.692c3.924 0 5.886 1.5 5.885 4.501v0c0 2.308-0.739 3.993-2.215 5.055-1.523 1.016-4.87 1.87-10.041 2.562-5.216 0.692-8.979 3.578-11.286 8.656-2.308 5.078-3.462 18.973-3.463 41.684 0 22.758 0.692 46.763 2.078 72.014 1.385 25.297 2.077 41.177 2.077 47.639v0c0 23.081 1.847 37.784 5.539 44.109 3.693 6.37 11.425 9.556 23.197 9.555v0c1.616 0 3.07 0.577 4.362 1.731 1.246 1.154 1.87 2.193 1.87 3.116v0c0 3.693-1.269 5.54-3.808 5.54v0h-3.809l-35.314-1.385c0 0-12.002 0.577-36.007 1.731v0c-4.155 0-6.232-1.616-6.232-4.847v0c0-3.462 3.116-5.54 9.348-6.232v0c2.308-0.231 4.801-1.662 7.479-4.293 2.631-2.677 4.478-6.509 5.539-11.495 1.016-4.939 1.523-11.795 1.523-20.565 0-8.771-0.185-18.35-0.554-28.736-0.323-10.387-0.716-20.496-1.177-30.329-0.462-9.786-0.923-19.019-1.385-27.697-0.462-8.632-0.808-15.718-1.038-21.258v0l-0.693-8.309c0-9.925-1.039-14.887-3.116-14.888v0c-0.692 0-1.316 0.346-1.869 1.039-0.6 0.692-1.131 1.269-1.593 1.731-0.462 0.462-0.923 1.2-1.385 2.216-0.462 1.062-0.923 1.939-1.385 2.631-0.462 0.692-1.039 1.662-1.731 2.908-0.692 1.293-1.269 2.4-1.731 3.324v0l-1.731 3.808c-0.923 1.616-1.616 3.001-2.077 4.155v0l-48.125 97.287c-5.54 11.31-10.894 22.389-16.064 33.237-5.216 10.848-8.286 17.011-9.209 18.488-0.923 1.523-2.239 2.285-3.947 2.286-1.754 0-3.324-0.992-4.709-2.978-1.385-1.939-3.462-6.255-6.232-12.949-2.77-6.694-5.193-12.233-7.27-16.618v0c-42.239-85.862-63.82-129.44-64.743-130.732-0.923-1.246-1.731-1.87-2.424-1.87v0c-1.847 0-2.77 4.616-2.77 13.849v0l-3.116 91.402v15.58c0 18.927 3.808 30.583 11.426 34.968v0c3.924 2.308 7.732 3.578 11.425 3.808v0c5.77 0.692 8.655 2.239 8.655 4.639 0 2.447-0.346 4.062-1.038 4.847-0.692 0.831-2.077 1.246-4.155 1.247v0z" fill="#ec4104" fill-rule="nonzero" stroke="none" stroke-width="1" stroke-linecap="butt" stroke-linejoin="miter" stroke-miterlimit="10" stroke-dasharray="" stroke-dashoffset="0" font-family="none" font-weight="none" font-size="none" text-anchor="none" style="mix-blend-mode: normal" data-fill-palette-color="tertiary"></path></g></g><g transform="matrix(1,0,0,1,0,54.12809503606279)"><svg viewBox="0 0 395.52 138.9438099278744" height="138.9438099278744" width="395.52"><g><svg viewBox="0 0 395.52 138.9438099278744" height="138.9438099278744" width="395.52"><g><svg viewBox="0 0 395.52 138.9438099278744" height="138.9438099278744" width="395.52"><g><svg viewBox="0 0 395.52 138.9438099278744" height="138.9438099278744" width="395.52"><g id="textblocktransform"><svg viewBox="0 0 395.52 138.9438099278744" height="138.9438099278744" width="395.52" id="textblock"><g><svg viewBox="0 0 395.52 138.9438099278744" height="138.9438099278744" width="395.52"><g transform="matrix(1,0,0,1,0,0)"><svg width="395.52" viewBox="-2 -39.2 118.85 42.400000000000006" height="138.9438099278744" data-palette-color="#ec4104"><path d="M7.25-0.05L3.15 0.1Q2.1 0.1 2.1-0.7L2.1-0.7Q2.1-1.35 3.6-1.4L3.6-1.4Q4.15-1.45 4.85-2.23 5.55-3 5.85-4.3 6.15-5.6 6.5-13.2 6.85-20.8 6.85-25.13 6.85-29.45 5.88-31.35 4.9-33.25 1.65-34L1.65-34Q1-34.15 1-34.75L1-34.75Q1-35.5 1.9-35.5L1.9-35.5 4.55-35.3 8.3-35.4Q9.25-35.4 9.5-34.7L9.5-34.7Q10.1-33.4 11.65-30.03 13.2-26.65 14.13-24.65 15.05-22.65 16.5-19.55 17.95-16.45 18.85-14.53 19.75-12.6 20.73-10.65 21.7-8.7 22.23-7.78 22.75-6.85 22.9-6.85 23.05-6.85 23.23-7.03 23.4-7.2 23.58-7.5 23.75-7.8 23.88-8.1 24-8.4 24.23-8.88 24.45-9.35 24.55-9.6L24.55-9.6 31-22.9Q33.65-28.3 34.55-30.45L34.55-30.45 35.7-32.95Q35.85-33.35 35.93-33.58 36-33.8 36.05-33.93 36.1-34.05 36.15-34.15 36.2-34.25 36.33-34.6 36.45-34.95 36.6-35.1L36.6-35.1Q37-35.5 38.05-35.5L38.05-35.5 42.35-35.4Q43.2-35.4 43.2-34.75L43.2-34.75Q43.2-34.25 42.88-34.02 42.55-33.8 41.43-33.65 40.3-33.5 39.8-32.4 39.3-31.3 39.3-26.38 39.3-21.45 39.6-15.98 39.9-10.5 39.9-9.1L39.9-9.1Q39.9-4.1 40.7-2.73 41.5-1.35 44.05-1.35L44.05-1.35Q44.4-1.35 44.68-1.1 44.95-0.85 44.95-0.65L44.95-0.65Q44.95 0.15 44.4 0.15L44.4 0.15 43.85 0.15 38.75-0.05Q38.75-0.05 33.55 0.2L33.55 0.2Q32.65 0.2 32.65-0.5L32.65-0.5Q32.65-1.25 34-1.4L34-1.4Q34.5-1.45 35.08-2.02 35.65-2.6 35.88-3.68 36.1-4.75 36.1-6.65 36.1-8.55 36.02-10.8 35.95-13.05 35.85-15.18 35.75-17.3 35.65-19.18 35.55-21.05 35.5-22.25L35.5-22.25 35.4-23.45Q35.4-25.6 34.95-25.6L34.95-25.6Q34.8-25.6 34.68-25.45 34.55-25.3 34.45-25.2 34.35-25.1 34.25-24.88 34.15-24.65 34.05-24.5 33.95-24.35 33.8-24.08 33.65-23.8 33.55-23.6L33.55-23.6 33.3-23.05Q33.1-22.7 33-22.45L33-22.45 26.05-8.4Q24.85-5.95 23.73-3.6 22.6-1.25 22.4-0.93 22.2-0.6 21.83-0.6 21.45-0.6 21.15-1.03 20.85-1.45 20.25-2.9 19.65-4.35 19.2-5.3L19.2-5.3Q10.05-23.9 9.85-24.18 9.65-24.45 9.5-24.45L9.5-24.45Q9.1-24.45 9.1-22.45L9.1-22.45 8.65-9.25 8.65-7Q8.65-2.9 10.3-1.95L10.3-1.95Q11.15-1.45 11.95-1.4L11.95-1.4Q13.2-1.25 13.2-0.73 13.2-0.2 13.05-0.03 12.9 0.15 12.45 0.15L12.45 0.15 7.25-0.05ZM56.85 0.05L52.7 0 48.4 0.2Q46.95 0.2 46.95-0.4L46.95-0.4Q46.95-1.1 47.7-1.35L47.7-1.35Q49.3-1.95 50.5-4.03 51.7-6.1 56.52-16.57 61.35-27.05 65.1-35.05L65.1-35.05Q65.45-35.8 65.72-36 66-36.2 66.52-36.2 67.05-36.2 67.2-36 67.35-35.8 67.75-34.65 68.15-33.5 68.37-32.9 68.6-32.3 69.1-30.95 69.6-29.6 70.7-26.9 71.8-24.2 75.72-15.08 79.65-5.95 80.25-4.73 80.85-3.5 81.9-2.63 82.95-1.75 83.72-1.68 84.5-1.6 85.02-1.43 85.55-1.25 85.55-0.65L85.55-0.65Q85.55 0.1 84.2 0.1L84.2 0.1 79.7-0.2 75.05 0Q73.5 0 73.07-0.13 72.65-0.25 72.65-0.65 72.65-1.05 73.05-1.28 73.45-1.5 73.9-1.58 74.35-1.65 74.75-2.02 75.15-2.4 75.15-3.28 75.15-4.15 73.9-7.55 72.65-10.95 71.8-12.55L71.8-12.55Q71.35-13.4 69.75-13.4L69.75-13.4 63.7-13.3 61.05-13.3Q58.8-13.3 58.22-13.05 57.65-12.8 57.27-12 56.9-11.2 56.2-9.78 55.5-8.35 55.25-7.8 55-7.25 54.65-6.4L54.65-6.4Q54-4.9 54-3.9 54-2.9 54.57-2.3 55.15-1.7 55.85-1.6L55.85-1.6Q57.7-1.45 57.7-0.65L57.7-0.65Q57.7-0.3 57.55-0.13 57.4 0.05 56.85 0.05L56.85 0.05ZM64.75-28.5Q64.3-28.5 61.9-22.98 59.5-17.45 59.5-16.85 59.5-16.25 59.95-16.1 60.4-15.95 62.05-15.95L62.05-15.95 63.6-15.95 68.35-16Q70.3-16 70.3-16.73 70.3-17.45 67.85-22.98 65.4-28.5 64.75-28.5L64.75-28.5ZM95.55-4.45L95.55-4.45 95.65-14.6Q95.65-16.7 94.35-18.7L94.35-18.7Q93.15-20.6 91.2-23.45 89.25-26.3 87.75-28.58 86.25-30.85 85-32.08 83.75-33.3 83.07-33.52 82.4-33.75 81.32-33.75 80.25-33.75 80.25-34.35 80.25-34.95 80.82-35.1 81.4-35.25 83.35-35.25L83.35-35.25 86.25-35.15 90.5-35.2Q93-35.2 93-34.63 93-34.05 91.95-33.68 90.9-33.3 90.9-32.83 90.9-32.35 91.22-31.55 91.55-30.75 91.87-30.25 92.2-29.75 92.85-28.8 93.5-27.85 94.4-26.4 95.3-24.95 97.12-22.5 98.95-20.05 99.22-20.05 99.5-20.05 99.95-20.63 100.4-21.2 101.2-22.55 102-23.9 102.35-24.43 102.7-24.95 103.27-25.8 103.85-26.65 104.07-27 104.3-27.35 104.75-28.08 105.2-28.8 105.4-29.18 105.6-29.55 105.85-30.1L105.85-30.1Q106.35-31 106.35-31.6L106.35-31.6Q106.35-33.4 104.05-33.7L104.05-33.7Q102.95-33.85 102.8-34.13 102.65-34.4 102.65-34.65L102.65-34.65Q102.65-35.25 104.05-35.25L104.05-35.25 106.1-35.2 111.4-35.15Q113.85-35.15 113.85-34.4L113.85-34.4Q113.85-34.2 113.55-34.05 113.25-33.9 112.7-33.65 112.15-33.4 111.7-33.05L111.7-33.05Q109.65-31.45 105.67-25.45 101.7-19.45 101.02-18.6 100.35-17.75 100.15-16.55 99.95-15.35 99.95-12.45L99.95-12.45 100-6.65 100-5.45Q100-3.8 100.57-2.85 101.15-1.9 101.65-1.73 102.15-1.55 102.65-1.55L102.65-1.55 103.65-1.5Q104-1.5 104.2-1.28 104.4-1.05 104.4-0.68 104.4-0.3 104.15-0.15 103.9 0 103.2 0L103.2 0 98.2-0.05 92.7 0.15Q91.3 0.15 91.3-0.35 91.3-0.85 91.57-1.03 91.85-1.2 92.5-1.25 93.15-1.3 93.45-1.4L93.45-1.4Q95.55-2.05 95.55-4.45Z" opacity="1" transform="matrix(1,0,0,1,0,0)" fill="#ec4104" class="wordmark-text-0" data-fill-palette-color="primary" id="text-0"></path></svg></g></svg></g></svg></g></svg></g></svg></g></svg></g></svg></g></svg></g><defs></defs></svg><rect width="395.52" height="247.2" fill="none" stroke="none" visibility="hidden"></rect></g></svg></g></svg>